<mxfile host="65bd71144e">
    <diagram id="vl4WhjHI8ou2VD4fjwRF" name="Page-1">
        <mxGraphModel dx="1086" dy="698" grid="1" gridSize="10" guides="1" tooltips="1" connect="1" arrows="1" fold="1" page="1" pageScale="1" pageWidth="2336" pageHeight="1654" math="0" shadow="0">
            <root>
                <mxCell id="0"/>
                <mxCell id="1" parent="0"/>
                <mxCell id="261" value="" style="whiteSpace=wrap;html=1;" vertex="1" parent="1">
                    <mxGeometry x="140" y="400" width="290" height="200" as="geometry"/>
                </mxCell>
                <mxCell id="262" value="VNet1" style="text;html=1;align=center;verticalAlign=middle;resizable=0;points=[];autosize=1;strokeColor=none;fillColor=none;fontSize=30;" vertex="1" parent="1">
                    <mxGeometry x="135" y="410" width="110" height="50" as="geometry"/>
                </mxCell>
                <mxCell id="272" value="" style="edgeStyle=none;html=1;strokeWidth=5;fontSize=30;" edge="1" parent="1" source="263" target="267">
                    <mxGeometry relative="1" as="geometry"/>
                </mxCell>
                <mxCell id="273" value="" style="edgeStyle=none;html=1;strokeWidth=5;fontSize=30;" edge="1" parent="1" source="263" target="267">
                    <mxGeometry relative="1" as="geometry"/>
                </mxCell>
                <mxCell id="274" value="" style="edgeStyle=none;html=1;strokeWidth=5;fontSize=30;" edge="1" parent="1" source="263" target="267">
                    <mxGeometry relative="1" as="geometry"/>
                </mxCell>
                <mxCell id="263" value="" style="sketch=0;aspect=fixed;html=1;points=[];align=center;image;fontSize=12;image=img/lib/mscae/VPN_Gateway.svg;" vertex="1" parent="1">
                    <mxGeometry x="410" y="475" width="45" height="50" as="geometry"/>
                </mxCell>
                <mxCell id="264" value="AUS" style="text;html=1;align=center;verticalAlign=middle;resizable=0;points=[];autosize=1;strokeColor=none;fillColor=none;fontSize=30;" vertex="1" parent="1">
                    <mxGeometry x="135" y="450" width="90" height="50" as="geometry"/>
                </mxCell>
                <mxCell id="265" value="192.168.0.0/16" style="text;html=1;align=center;verticalAlign=middle;resizable=0;points=[];autosize=1;strokeColor=none;fillColor=none;fontSize=30;" vertex="1" parent="1">
                    <mxGeometry x="135" y="490" width="220" height="50" as="geometry"/>
                </mxCell>
                <mxCell id="266" value="192.168.0.0/16" style="text;html=1;align=center;verticalAlign=middle;resizable=0;points=[];autosize=1;strokeColor=none;fillColor=none;fontSize=30;" vertex="1" parent="1">
                    <mxGeometry x="135" y="530" width="220" height="50" as="geometry"/>
                </mxCell>
                <mxCell id="267" value="VPN Gateway" style="text;html=1;align=center;verticalAlign=middle;resizable=0;points=[];autosize=1;strokeColor=none;fillColor=none;fontSize=30;" vertex="1" parent="1">
                    <mxGeometry x="350" y="425" width="210" height="50" as="geometry"/>
                </mxCell>
                <mxCell id="268" value="" style="outlineConnect=0;dashed=0;verticalLabelPosition=bottom;verticalAlign=top;align=center;html=1;shape=mxgraph.aws3.office_building;fillColor=#7D7C7C;gradientColor=none;fontSize=30;" vertex="1" parent="1">
                    <mxGeometry x="950" y="160" width="33" height="79.5" as="geometry"/>
                </mxCell>
                <mxCell id="298" style="edgeStyle=none;html=1;strokeWidth=5;fontSize=30;" edge="1" parent="1" source="269" target="295">
                    <mxGeometry relative="1" as="geometry"/>
                </mxCell>
                <mxCell id="269" value="" style="outlineConnect=0;dashed=0;verticalLabelPosition=bottom;verticalAlign=top;align=center;html=1;shape=mxgraph.aws3.office_building;fillColor=#7D7C7C;gradientColor=none;fontSize=30;" vertex="1" parent="1">
                    <mxGeometry x="950" y="320.5" width="33" height="79.5" as="geometry"/>
                </mxCell>
                <mxCell id="270" value="" style="outlineConnect=0;dashed=0;verticalLabelPosition=bottom;verticalAlign=top;align=center;html=1;shape=mxgraph.aws3.office_building;fillColor=#7D7C7C;gradientColor=none;fontSize=30;" vertex="1" parent="1">
                    <mxGeometry x="950" y="580" width="33" height="79.5" as="geometry"/>
                </mxCell>
                <mxCell id="271" value="" style="outlineConnect=0;dashed=0;verticalLabelPosition=bottom;verticalAlign=top;align=center;html=1;shape=mxgraph.aws3.office_building;fillColor=#7D7C7C;gradientColor=none;fontSize=30;" vertex="1" parent="1">
                    <mxGeometry x="950" y="770" width="33" height="79.5" as="geometry"/>
                </mxCell>
                <mxCell id="275" value="" style="endArrow=none;html=1;strokeWidth=5;fontSize=30;exitX=0.932;exitY=0.799;exitDx=0;exitDy=0;exitPerimeter=0;" edge="1" parent="1" source="263">
                    <mxGeometry width="50" height="50" relative="1" as="geometry">
                        <mxPoint x="630" y="670" as="sourcePoint"/>
                        <mxPoint x="650" y="515" as="targetPoint"/>
                    </mxGeometry>
                </mxCell>
                <mxCell id="276" value="" style="endArrow=none;html=1;strokeWidth=5;fontSize=30;" edge="1" parent="1">
                    <mxGeometry width="50" height="50" relative="1" as="geometry">
                        <mxPoint x="650" y="520" as="sourcePoint"/>
                        <mxPoint x="650" y="200" as="targetPoint"/>
                    </mxGeometry>
                </mxCell>
                <mxCell id="277" value="" style="endArrow=none;html=1;strokeWidth=5;fontSize=30;" edge="1" parent="1">
                    <mxGeometry width="50" height="50" relative="1" as="geometry">
                        <mxPoint x="650" y="830" as="sourcePoint"/>
                        <mxPoint x="650" y="520" as="targetPoint"/>
                    </mxGeometry>
                </mxCell>
                <mxCell id="278" value="" style="endArrow=none;html=1;strokeWidth=5;fontSize=30;entryX=0;entryY=0.5;entryDx=0;entryDy=0;entryPerimeter=0;startArrow=none;" edge="1" parent="1" target="268">
                    <mxGeometry width="50" height="50" relative="1" as="geometry">
                        <mxPoint x="810" y="200" as="sourcePoint"/>
                        <mxPoint x="848.06" y="199.42000000000002" as="targetPoint"/>
                    </mxGeometry>
                </mxCell>
                <mxCell id="282" value="Site to Site VPN" style="text;html=1;align=center;verticalAlign=middle;resizable=0;points=[];autosize=1;strokeColor=none;fillColor=none;fontSize=30;" vertex="1" parent="1">
                    <mxGeometry x="420" y="525" width="240" height="50" as="geometry"/>
                </mxCell>
                <mxCell id="284" value="" style="endArrow=none;html=1;strokeWidth=5;fontSize=30;exitX=0.932;exitY=0.799;exitDx=0;exitDy=0;exitPerimeter=0;entryX=0;entryY=0.5;entryDx=0;entryDy=0;entryPerimeter=0;" edge="1" parent="1" target="283">
                    <mxGeometry width="50" height="50" relative="1" as="geometry">
                        <mxPoint x="649.9999999999998" y="199.37000000000012" as="sourcePoint"/>
                        <mxPoint x="950" y="199.75" as="targetPoint"/>
                    </mxGeometry>
                </mxCell>
                <mxCell id="283" value="" style="aspect=fixed;perimeter=ellipsePerimeter;html=1;align=center;shadow=0;dashed=0;spacingTop=3;image;image=img/lib/active_directory/tunnel.svg;fontSize=30;" vertex="1" parent="1">
                    <mxGeometry x="730" y="191.75" width="80" height="16" as="geometry"/>
                </mxCell>
                <mxCell id="285" value="" style="endArrow=none;html=1;strokeWidth=5;fontSize=30;exitX=0.932;exitY=0.799;exitDx=0;exitDy=0;exitPerimeter=0;entryX=0;entryY=0.5;entryDx=0;entryDy=0;entryPerimeter=0;" edge="1" parent="1" target="286">
                    <mxGeometry width="50" height="50" relative="1" as="geometry">
                        <mxPoint x="649.9999999999998" y="359.8700000000001" as="sourcePoint"/>
                        <mxPoint x="950" y="360.25" as="targetPoint"/>
                    </mxGeometry>
                </mxCell>
                <mxCell id="286" value="" style="aspect=fixed;perimeter=ellipsePerimeter;html=1;align=center;shadow=0;dashed=0;spacingTop=3;image;image=img/lib/active_directory/tunnel.svg;fontSize=30;" vertex="1" parent="1">
                    <mxGeometry x="730" y="352.25" width="80" height="16" as="geometry"/>
                </mxCell>
                <mxCell id="287" value="" style="endArrow=none;html=1;strokeWidth=5;fontSize=30;exitX=0.932;exitY=0.799;exitDx=0;exitDy=0;exitPerimeter=0;entryX=0;entryY=0.5;entryDx=0;entryDy=0;entryPerimeter=0;" edge="1" parent="1" target="288">
                    <mxGeometry width="50" height="50" relative="1" as="geometry">
                        <mxPoint x="649.9999999999998" y="619.3700000000001" as="sourcePoint"/>
                        <mxPoint x="950" y="619.75" as="targetPoint"/>
                    </mxGeometry>
                </mxCell>
                <mxCell id="288" value="" style="aspect=fixed;perimeter=ellipsePerimeter;html=1;align=center;shadow=0;dashed=0;spacingTop=3;image;image=img/lib/active_directory/tunnel.svg;fontSize=30;" vertex="1" parent="1">
                    <mxGeometry x="730" y="611.75" width="80" height="16" as="geometry"/>
                </mxCell>
                <mxCell id="289" value="" style="endArrow=none;html=1;strokeWidth=5;fontSize=30;exitX=0.932;exitY=0.799;exitDx=0;exitDy=0;exitPerimeter=0;entryX=0;entryY=0.5;entryDx=0;entryDy=0;entryPerimeter=0;" edge="1" parent="1" target="290">
                    <mxGeometry width="50" height="50" relative="1" as="geometry">
                        <mxPoint x="649.9999999999998" y="826.6200000000001" as="sourcePoint"/>
                        <mxPoint x="950" y="827" as="targetPoint"/>
                    </mxGeometry>
                </mxCell>
                <mxCell id="290" value="" style="aspect=fixed;perimeter=ellipsePerimeter;html=1;align=center;shadow=0;dashed=0;spacingTop=3;image;image=img/lib/active_directory/tunnel.svg;fontSize=30;" vertex="1" parent="1">
                    <mxGeometry x="730" y="819" width="80" height="16" as="geometry"/>
                </mxCell>
                <mxCell id="291" value="" style="endArrow=none;html=1;strokeWidth=5;fontSize=30;entryX=0;entryY=0.5;entryDx=0;entryDy=0;entryPerimeter=0;startArrow=none;" edge="1" parent="1">
                    <mxGeometry width="50" height="50" relative="1" as="geometry">
                        <mxPoint x="810" y="360.12" as="sourcePoint"/>
                        <mxPoint x="950" y="359.87" as="targetPoint"/>
                    </mxGeometry>
                </mxCell>
                <mxCell id="292" value="" style="endArrow=none;html=1;strokeWidth=5;fontSize=30;entryX=0;entryY=0.5;entryDx=0;entryDy=0;entryPerimeter=0;startArrow=none;" edge="1" parent="1">
                    <mxGeometry width="50" height="50" relative="1" as="geometry">
                        <mxPoint x="810" y="619.62" as="sourcePoint"/>
                        <mxPoint x="950" y="619.37" as="targetPoint"/>
                    </mxGeometry>
                </mxCell>
                <mxCell id="293" value="" style="endArrow=none;html=1;strokeWidth=5;fontSize=30;entryX=0;entryY=0.5;entryDx=0;entryDy=0;entryPerimeter=0;startArrow=none;" edge="1" parent="1">
                    <mxGeometry width="50" height="50" relative="1" as="geometry">
                        <mxPoint x="810" y="827.25" as="sourcePoint"/>
                        <mxPoint x="950" y="827" as="targetPoint"/>
                    </mxGeometry>
                </mxCell>
                <mxCell id="294" value="Location 1&lt;br&gt;10.10.0.0/16" style="text;html=1;align=center;verticalAlign=middle;resizable=0;points=[];autosize=1;strokeColor=none;fillColor=none;fontSize=30;" vertex="1" parent="1">
                    <mxGeometry x="880" y="230.5" width="190" height="90" as="geometry"/>
                </mxCell>
                <mxCell id="295" value="Location 2&lt;br&gt;10.20.0.0/16" style="text;html=1;align=center;verticalAlign=middle;resizable=0;points=[];autosize=1;strokeColor=none;fillColor=none;fontSize=30;" vertex="1" parent="1">
                    <mxGeometry x="880" y="400" width="190" height="90" as="geometry"/>
                </mxCell>
                <mxCell id="296" value="Location 3&lt;br&gt;10.30.0.0/16" style="text;html=1;align=center;verticalAlign=middle;resizable=0;points=[];autosize=1;strokeColor=none;fillColor=none;fontSize=30;" vertex="1" parent="1">
                    <mxGeometry x="890" y="659.5" width="190" height="90" as="geometry"/>
                </mxCell>
                <mxCell id="297" value="Location 4&lt;br&gt;10.40.0.0/16" style="text;html=1;align=center;verticalAlign=middle;resizable=0;points=[];autosize=1;strokeColor=none;fillColor=none;fontSize=30;" vertex="1" parent="1">
                    <mxGeometry x="890" y="835" width="190" height="90" as="geometry"/>
                </mxCell>
                <mxCell id="299" value="VPN" style="text;html=1;align=center;verticalAlign=middle;resizable=0;points=[];autosize=1;strokeColor=none;fillColor=none;fontSize=30;" vertex="1" parent="1">
                    <mxGeometry x="725" y="141.75" width="90" height="50" as="geometry"/>
                </mxCell>
                <mxCell id="300" value="VPN" style="text;html=1;align=center;verticalAlign=middle;resizable=0;points=[];autosize=1;strokeColor=none;fillColor=none;fontSize=30;" vertex="1" parent="1">
                    <mxGeometry x="720" y="302.25" width="90" height="50" as="geometry"/>
                </mxCell>
                <mxCell id="301" value="VPN" style="text;html=1;align=center;verticalAlign=middle;resizable=0;points=[];autosize=1;strokeColor=none;fillColor=none;fontSize=30;" vertex="1" parent="1">
                    <mxGeometry x="720" y="561.75" width="90" height="50" as="geometry"/>
                </mxCell>
                <mxCell id="302" value="VPN" style="text;html=1;align=center;verticalAlign=middle;resizable=0;points=[];autosize=1;strokeColor=none;fillColor=none;fontSize=30;" vertex="1" parent="1">
                    <mxGeometry x="730" y="770" width="90" height="50" as="geometry"/>
                </mxCell>
            </root>
        </mxGraphModel>
    </diagram>
</mxfile>